<mxfile host="Electron" modified="2024-05-14T07:56:31.952Z" agent="Mozilla/5.0 (Windows NT 10.0; Win64; x64) AppleWebKit/537.36 (KHTML, like Gecko) draw.io/24.2.5 Chrome/120.0.6099.109 Electron/28.1.0 Safari/537.36" etag="kDRATRHqMg0MNZKHznSn" version="24.2.5" type="device">
  <diagram name="Сторінка-1" id="t_dyZnPpKNKLbERTNAK1">
    <mxGraphModel dx="2117" dy="629" grid="1" gridSize="10" guides="1" tooltips="1" connect="1" arrows="1" fold="1" page="1" pageScale="1" pageWidth="827" pageHeight="1169" math="0" shadow="0">
      <root>
        <mxCell id="0" />
        <mxCell id="1" parent="0" />
        <mxCell id="As290urpjiBn_Q7XXSmP-1" value="викладач" style="shape=umlActor;verticalLabelPosition=bottom;verticalAlign=top;html=1;outlineConnect=0;" parent="1" vertex="1">
          <mxGeometry x="-90" y="40" width="30" height="60" as="geometry" />
        </mxCell>
        <mxCell id="As290urpjiBn_Q7XXSmP-5" value="" style="ellipse;html=1;shape=startState;fillColor=#000000;strokeColor=#ff0000;" parent="1" vertex="1">
          <mxGeometry x="-50" y="70" width="30" height="30" as="geometry" />
        </mxCell>
        <mxCell id="As290urpjiBn_Q7XXSmP-6" value="" style="edgeStyle=orthogonalEdgeStyle;html=1;verticalAlign=bottom;endArrow=open;endSize=8;strokeColor=#ff0000;rounded=0;" parent="1" source="As290urpjiBn_Q7XXSmP-5" edge="1">
          <mxGeometry relative="1" as="geometry">
            <mxPoint x="-35" y="160" as="targetPoint" />
          </mxGeometry>
        </mxCell>
        <mxCell id="As290urpjiBn_Q7XXSmP-9" value="Редагування тесту" style="rounded=1;whiteSpace=wrap;html=1;arcSize=40;fontColor=#000000;fillColor=#ffffc0;strokeColor=#ff0000;" parent="1" vertex="1">
          <mxGeometry x="120" y="185" width="120" height="40" as="geometry" />
        </mxCell>
        <mxCell id="As290urpjiBn_Q7XXSmP-11" value="Створити новий тест" style="text;whiteSpace=wrap;html=1;" parent="1" vertex="1">
          <mxGeometry x="-30" y="270" width="70" height="50" as="geometry" />
        </mxCell>
        <mxCell id="As290urpjiBn_Q7XXSmP-13" value="Редагування тесту" style="rounded=1;whiteSpace=wrap;html=1;arcSize=40;fontColor=#000000;fillColor=#ffffc0;strokeColor=#ff0000;" parent="1" vertex="1">
          <mxGeometry x="-90" y="340" width="120" height="40" as="geometry" />
        </mxCell>
        <mxCell id="As290urpjiBn_Q7XXSmP-14" value="Редагувати існуючий тест" style="text;whiteSpace=wrap;html=1;" parent="1" vertex="1">
          <mxGeometry x="20" y="160" width="90" height="40" as="geometry" />
        </mxCell>
        <mxCell id="As290urpjiBn_Q7XXSmP-15" value="Авторизований користувач" style="rhombus;whiteSpace=wrap;html=1;fontColor=#000000;fillColor=#ffffc0;strokeColor=#ff0000;" parent="1" vertex="1">
          <mxGeometry x="-80" y="160" width="100" height="90" as="geometry" />
        </mxCell>
        <mxCell id="As290urpjiBn_Q7XXSmP-17" value="&lt;span style=&quot;color: rgba(0, 0, 0, 0); font-family: monospace; font-size: 0px; background-color: rgb(251, 251, 251);&quot;&gt;%3CmxGraphModel%3E%3Croot%3E%3CmxCell%20id%3D%220%22%2F%3E%3CmxCell%20id%3D%221%22%20parent%3D%220%22%2F%3E%3CmxCell%20id%3D%222%22%20value%3D%22%22%20style%3D%22edgeStyle%3DorthogonalEdgeStyle%3Bhtml%3D1%3Balign%3Dleft%3BverticalAlign%3Dtop%3BendArrow%3Dopen%3BendSize%3D8%3BstrokeColor%3D%23ff0000%3Brounded%3D0%3B%22%20edge%3D%221%22%20parent%3D%221%22%3E%3CmxGeometry%20x%3D%22-1%22%20relative%3D%221%22%20as%3D%22geometry%22%3E%3CmxPoint%20x%3D%22-30%22%20y%3D%22340%22%20as%3D%22targetPoint%22%2F%3E%3CmxPoint%20x%3D%22-30%22%20y%3D%22250%22%20as%3D%22sourcePoint%22%2F%3E%3C%2FmxGeometry%3E%3C%2FmxCell%3E%3C%2Froot%3E%3C%2FmxGraphModel%3E&lt;/span&gt;" style="edgeStyle=orthogonalEdgeStyle;html=1;align=left;verticalAlign=top;endArrow=open;endSize=8;strokeColor=#ff0000;rounded=0;" parent="1" source="As290urpjiBn_Q7XXSmP-15" edge="1">
          <mxGeometry x="-1" relative="1" as="geometry">
            <mxPoint x="-30" y="340" as="targetPoint" />
          </mxGeometry>
        </mxCell>
        <mxCell id="As290urpjiBn_Q7XXSmP-19" value="" style="edgeStyle=orthogonalEdgeStyle;html=1;verticalAlign=bottom;endArrow=open;endSize=8;strokeColor=#ff0000;rounded=0;" parent="1" edge="1">
          <mxGeometry relative="1" as="geometry">
            <mxPoint x="120" y="205" as="targetPoint" />
            <mxPoint x="20" y="204.5" as="sourcePoint" />
          </mxGeometry>
        </mxCell>
        <mxCell id="As290urpjiBn_Q7XXSmP-27" value="" style="edgeStyle=orthogonalEdgeStyle;html=1;verticalAlign=bottom;endArrow=open;endSize=8;strokeColor=#ff0000;rounded=0;entryX=0.185;entryY=1.035;entryDx=0;entryDy=0;exitX=1;exitY=0.75;exitDx=0;exitDy=0;entryPerimeter=0;" parent="1" source="As290urpjiBn_Q7XXSmP-13" target="As290urpjiBn_Q7XXSmP-9" edge="1">
          <mxGeometry relative="1" as="geometry">
            <mxPoint x="-31" y="440" as="targetPoint" />
            <mxPoint x="-31" y="380" as="sourcePoint" />
            <Array as="points">
              <mxPoint x="30" y="320" />
              <mxPoint x="110" y="320" />
              <mxPoint x="110" y="226" />
            </Array>
          </mxGeometry>
        </mxCell>
        <mxCell id="As290urpjiBn_Q7XXSmP-28" value="" style="ellipse;html=1;shape=endState;fillColor=#000000;strokeColor=#ff0000;" parent="1" vertex="1">
          <mxGeometry x="190" y="350" width="30" height="30" as="geometry" />
        </mxCell>
        <mxCell id="As290urpjiBn_Q7XXSmP-29" value="" style="edgeStyle=orthogonalEdgeStyle;html=1;verticalAlign=bottom;endArrow=open;endSize=8;strokeColor=#ff0000;rounded=0;entryX=0.5;entryY=0;entryDx=0;entryDy=0;" parent="1" target="As290urpjiBn_Q7XXSmP-28" edge="1">
          <mxGeometry relative="1" as="geometry">
            <mxPoint x="204.5" y="285" as="targetPoint" />
            <mxPoint x="204.5" y="225" as="sourcePoint" />
          </mxGeometry>
        </mxCell>
        <mxCell id="As290urpjiBn_Q7XXSmP-30" value="Збереження тесту" style="text;whiteSpace=wrap;html=1;" parent="1" vertex="1">
          <mxGeometry x="120" y="310" width="70" height="40" as="geometry" />
        </mxCell>
      </root>
    </mxGraphModel>
  </diagram>
</mxfile>
